<?xml version="1.0" encoding="UTF-8"?>
<svg id="Calque_1" xmlns="http://www.w3.org/2000/svg" version="1.1" viewBox="0 0 1190.55 841.89">
  <!-- Generator: Adobe Illustrator 29.6.1, SVG Export Plug-In . SVG Version: 2.1.1 Build 9)  -->
  <defs>
    <style>
      .st0 {
        fill: none;
        stroke: #1d1d1b;
        stroke-miterlimit: 10;
        stroke-width: 16.87px;
      }

      .st1 {
        fill: #1d1d1b;
      }
    </style>
  </defs>
  <g>
    <path class="st0" d="M1052.04,627.49c0-252.42-204.25-456.67-456.67-456.67-252.42,0-456.67,204.25-456.67,456.67"/>
    <circle class="st0" cx="587.45" cy="124.93" r="44.39"/>
    <rect class="st0" x="85.94" y="629.1" width="1018.68" height="42.92"/>
  </g>
  <g>
    <path class="st1" d="M730.53,592.87h-19.3l-105.34-143.94c-69.86-95.96-106.81-145.96-110.85-150.01-.37,31.26-.55,56.81-.55,76.66,0,25.01.46,48.9,1.38,71.7.91,22.8,1.38,51.11,1.38,84.93v22.06c0,15.08,6.43,22.61,19.3,22.61,20.96,0,31.62.37,31.99,1.11v9.93c-18.02-1.1-38.43-1.65-61.22-1.65-25.37,0-46.88.73-64.53,2.21v-8.82h3.31c30.14,0,46.14-4.22,47.98-12.69,1.83-109.56,2.76-173.73,2.76-192.48,0-28.31-.37-61.03-1.1-98.17-.74-4.04-9.37-9.56-25.92-16.54l-24.82-9.93v-9.93l102.03.55c21.69,30.15,57.36,77.58,106.99,142.29l96.48,117.99"/>
    <path class="st1" d="M729.71,239.91c9.55,0,18.28,3.03,26.19,9.1,7.9,6.07,11.86,15.17,11.86,27.3,0,13.24-3.58,22.89-10.76,28.95-7.17,6.07-16.27,9.1-27.3,9.1-9.2,0-17.56-3.86-25.1-11.58-7.54-7.72-11.3-16.54-11.3-26.47,0-11.39,3.86-20.31,11.58-26.75,7.72-6.43,15.99-9.65,24.82-9.65Z"/>
  </g>
  <g>
    <path class="st0" d="M422.4,728.71h352.28v21.78c0,5.99-4.86,10.85-10.85,10.85h-330.58c-5.99,0-10.85-4.86-10.85-10.85v-21.78h0Z"/>
    <polygon class="st0" points="1100.46 672.02 90.09 672.02 90.09 701.99 422.4 728.71 774.68 728.71 1100.46 701.99 1100.46 672.02"/>
  </g>
</svg>