<?xml version="1.0" encoding="UTF-8"?>
<svg id="Calque_1" xmlns="http://www.w3.org/2000/svg" version="1.1" viewBox="0 0 1190.55 841.89">
  <!-- Generator: Adobe Illustrator 29.6.1, SVG Export Plug-In . SVG Version: 2.1.1 Build 9)  -->
  <defs>
    <style>
      .st0 {
        fill: #fff;
      }

      .st1 {
        stroke-width: 7.9px;
      }

      .st1, .st2 {
        fill: none;
        stroke: #fff;
        stroke-miterlimit: 10;
      }

      .st2 {
        stroke-width: 8.67px;
      }
    </style>
  </defs>
  <g>
    <g>
      <path class="st1" d="M417.34,459.3c0-101.02-81.74-182.76-182.76-182.76-101.02,0-182.76,81.74-182.76,182.76"/>
      <circle class="st1" cx="231.41" cy="258.18" r="17.77"/>
      <rect class="st1" x="30.7" y="459.95" width="407.67" height="17.17"/>
    </g>
    <g>
      <path class="st0" d="M288.67,445.45h-7.72l-42.16-57.61c-27.96-38.4-42.75-58.41-44.36-60.03-.15,12.51-.22,22.73-.22,30.68,0,10.01.18,19.57.55,28.69.37,9.12.55,20.45.55,33.99v8.83c0,6.03,2.57,9.05,7.72,9.05,8.39,0,12.65.15,12.8.44v3.97c-7.21-.44-15.38-.66-24.5-.66-10.15,0-18.76.29-25.82.88v-3.53h1.32c12.06,0,18.46-1.69,19.2-5.08.73-43.85,1.1-69.52,1.1-77.03,0-11.33-.15-24.42-.44-39.29-.3-1.62-3.75-3.82-10.37-6.62l-9.93-3.97v-3.97l40.83.22c8.68,12.07,22.95,31.05,42.82,56.94l38.61,47.22"/>
      <path class="st0" d="M288.34,304.19c3.82,0,7.32,1.21,10.48,3.64,3.16,2.43,4.75,6.07,4.75,10.93,0,5.3-1.43,9.16-4.3,11.59-2.87,2.43-6.51,3.64-10.92,3.64-3.68,0-7.03-1.55-10.04-4.64-3.02-3.09-4.52-6.62-4.52-10.59,0-4.56,1.54-8.13,4.63-10.7,3.09-2.57,6.4-3.86,9.93-3.86Z"/>
    </g>
    <g>
      <path class="st2" d="M165.36,499.81h140.98v4.64c0,4.65-3.77,8.42-8.42,8.42h-124.15c-4.65,0-8.42-3.77-8.42-8.42v-4.64h0Z"/>
      <polygon class="st2" points="436.71 477.12 32.36 477.12 32.36 489.11 165.36 499.81 306.34 499.81 436.71 489.11 436.71 477.12"/>
    </g>
  </g>
  <g>
    <g>
      <path class="st0" d="M541.48,422.52c5.55,0,10.83.86,15.85,2.58,5.02,1.72,8.29,3.49,9.83,5.31,1.15-.76,2.03-1.58,2.65-2.44.62-.86,1-1.63,1.15-2.3.14-.67.36-2.05.65-4.16h4.59l-.43,29.69h-2.87c-1.24-7.75-4.57-13.79-9.97-18.15-5.4-4.35-12.93-6.53-22.59-6.53s-16.45,3.87-21.23,11.62c-4.78,7.75-7.27,18.22-7.46,31.41,0,29.17,10.23,43.75,30.7,43.75,4.68,0,8.8-.65,12.34-1.94,3.54-1.29,6.57-3.23,9.11-5.81,2.53-2.58,4.54-5.16,6.02-7.75,1.48-2.58,3.08-5.83,4.81-9.75l3.3,2.58c-7.46,17.98-19.41,27.01-35.86,27.11-14.54,0-26.39-4.13-35.57-12.41-9.18-8.27-13.77-19.87-13.77-34.78,0-7.17,1.1-13.63,3.3-19.36,2.2-5.74,5.02-10.33,8.46-13.77s7.39-6.36,11.83-8.75c4.45-2.39,8.75-4.02,12.91-4.88,4.16-.86,8.25-1.29,12.26-1.29Z"/>
      <path class="st0" d="M593.41,423.38h.14c7.75,0,14.68-1.05,20.8-3.16l-.29,50.2c1.44-2.39,2.56-4.06,3.37-5.02.81-.95,2.03-2.32,3.66-4.09,1.63-1.77,3.47-3.06,5.52-3.87,2.05-.81,4.42-1.22,7.1-1.22,3.44,0,6.5.81,9.18,2.44,2.68,1.63,4.68,3.63,6.02,6.02,1.34,2.39,2.32,4.71,2.94,6.96.62,2.25.93,4.18.93,5.81v31.7c0,.86.67,1.53,2.01,2.01,1.34.48,2.41.74,3.23.79.81.05,2.32.12,4.52.22v2.29c-4.02-.38-9.18-.57-15.49-.57s-11.71.19-15.35.57v-2.29c.57-.09,1.27-.14,2.08-.14s1.65-.05,2.51-.14c.86-.09,1.65-.26,2.37-.5.72-.24,1.29-.53,1.72-.86.43-.33.65-.74.65-1.22v-34.28c0-8.8-3.25-13.24-9.75-13.34-3.92,0-7.01.93-9.25,2.8-2.25,1.86-4.9,5.05-7.96,9.54v35.14c0,.96.6,1.67,1.79,2.15,1.19.48,2.53.72,4.02.72s2.84.05,4.09.14v2.29c-4.3-.38-9.61-.57-15.92-.57s-10.9.19-14.63.57v-2.29c1.72,0,3.68-.29,5.88-.86,2.2-.57,3.3-1.29,3.3-2.15,0-3.54.07-10.95.21-22.23.14-11.28.22-20.17.22-26.68,0-13.67-.14-24.19-.43-31.56-.67-.67-1.48-1.19-2.44-1.58-.96-.38-1.79-.62-2.51-.72-.72-.09-2.13-.29-4.23-.57v-2.44Z"/>
      <path class="st0" d="M686.93,483.34v3.16c0,6.89,1.27,13.1,3.8,18.65,2.53,5.55,6.19,8.32,10.97,8.32,5.54,0,9.94-1.62,13.2-4.88s5.5-6.65,6.74-10.18l4.02,2.87c-1.44,3.64-4.21,7.15-8.32,10.54-4.11,3.39-9.52,5.09-16.21,5.09-8.13,0-14.89-2.53-20.3-7.6-5.4-5.07-8.1-12.43-8.1-22.09,0-5.64.93-10.59,2.8-14.85,1.87-4.25,4.35-7.5,7.46-9.75,3.11-2.25,6.24-3.9,9.39-4.95,3.16-1.05,6.41-1.58,9.75-1.58,5.16,0,9.97,1.39,14.42,4.16,4.45,2.77,7.34,7.27,8.68,13.48.38,1.91.57,3.82.57,5.74,0,1.05-.05,2.29-.14,3.73l-38.73.14ZM687.07,481.18l25.82-.14c.1-1.63.14-3.16.14-4.59,0-2.96-.24-5.36-.72-7.17-.77-3.06-2.32-5.57-4.66-7.53-2.34-1.96-5.23-2.94-8.68-2.94s-6.31,2.01-8.32,6.02c-2.01,4.02-3.21,9.47-3.59,16.35Z"/>
      <path class="st0" d="M777.73,514.46c-5.64-.38-12.05-.57-19.22-.57s-13.1.19-17.79.57v-2.58c8.13,0,12.24-1.24,12.34-3.73l.57-47.91h-12.05v-3.16h12.05v-3.16c0-23.81,8.32-35.72,24.96-35.72,4.4,0,8.89,1.15,13.48,3.44,4.59,2.29,6.89,5.31,6.89,9.04,0,2.49-.67,4.76-2.01,6.81-1.34,2.06-3.4,3.08-6.17,3.08-1.91,0-3.49-.74-4.73-2.22-1.24-1.48-1.86-3.03-1.86-4.66,0-1.24.43-2.44,1.29-3.59.86-1.15,1.77-1.91,2.73-2.29l1.29-.72c-.1-2.39-1.29-4.09-3.59-5.09-2.29-1-4.88-1.51-7.75-1.51-4.21,0-7.41,1.63-9.61,4.88-2.29,3.54-3.4,9.56-3.3,18.07,0,4.02.05,6.93.14,8.75.1,1.82.14,3.44.14,4.88h13.63v3.16h-13.63l.86,47.91c.09,1.24.86,2.2,2.29,2.87,1.44.67,3.01,1,4.73,1,.95,0,2.39-.05,4.3-.14v2.58Z"/>
      <path class="st0" d="M891.62,450.35c0,7.17-2.73,12.86-8.18,17.07-5.45,4.21-12.91,6.31-22.38,6.31-3.35,0-5.98-.24-7.89-.72l-2.87-.86-.14,35.57c0,1.72,1.01,3.01,3.01,3.87,2.01.86,4.45,1.29,7.32,1.29.76,0,1.58-.05,2.44-.14v2.15c0-.19-13.1-.29-39.3-.29v-2.29h.72c7.17,0,10.85-1.1,11.04-3.3.29-2.87.43-15.37.43-37.51s-.14-35.79-.43-40.95c-.1-1.24-1.72-2.15-4.88-2.73l-4.88-1v-2.58c5.64,0,12.91.05,21.8.14,8.89.1,14.54.14,16.93.14,6.5,0,12.67,2.34,18.5,7.03,5.83,4.69,8.75,10.95,8.75,18.79ZM877.13,450.35c0-2.96-.12-5.47-.36-7.53-.24-2.05-.77-4.18-1.58-6.38-.82-2.2-2.15-3.99-4.02-5.38-1.86-1.39-4.23-2.32-7.1-2.8-1.63-.29-3.64-.43-6.02-.43-.86,0-2.15.02-3.87.07-1.72.05-3.01.07-3.87.07v42.03c0,.48,3.2.72,9.61.72,5.54,0,9.78-2.03,12.69-6.1,2.92-4.06,4.42-8.82,4.52-14.27Z"/>
      <path class="st0" d="M944.26,454.79c3.63,0,6.43,1.08,8.39,3.23,1.96,2.15,2.94,5.24,2.94,9.25,0,2.39-.81,4.59-2.44,6.6-1.63,2.01-3.49,3.01-5.59,3.01-1.53,0-3.11-.67-4.73-2.01-1.63-1.34-2.49-2.92-2.58-4.73,0-2.1,1.39-4.11,4.16-6.02-.29-.86-.79-1.72-1.51-2.58-.72-.86-1.84-1.29-3.37-1.29-2.68,0-5.23,1.46-7.68,4.37-2.44,2.92-4.18,5.81-5.23,8.68l-1.58,4.45.29,30.7c.09,1.91,3.39,3.16,9.9,3.73v2.29c-4.02-.29-9.23-.43-15.64-.43-6.02,0-11,.14-14.92.43v-2.29c1.44-.09,3.32-.57,5.67-1.44,2.34-.86,3.52-1.62,3.52-2.29v-47.48c-1.24-.76-4.31-1.24-9.18-1.44l-.29-2.29c5.45,0,11.95-.95,19.51-2.87l1.58,17.21c1.53-4.11,3.87-7.94,7.03-11.47,3.15-3.54,7.08-5.31,11.76-5.31Z"/>
      <path class="st0" d="M988.58,453.93c-.19,16.54-.29,34.95-.29,55.22.38,1.91,3.73,2.92,10.04,3.01v2.29c-3.92-.29-9.13-.43-15.64-.43s-11.19.14-14.92.43v-2.29c5.74-.19,8.75-1.19,9.04-3.01v-48.2c-2.97-.95-5.98-1.44-9.04-1.44v-2.29c8.6-.48,15.54-1.58,20.8-3.3ZM981.98,422.52c2.2,0,4.21.79,6.02,2.37,1.82,1.58,2.73,3.42,2.73,5.52,0,2.58-.84,4.71-2.51,6.38-1.67,1.68-3.75,2.51-6.24,2.51-1.82,0-3.59-.76-5.31-2.29-1.72-1.53-2.58-3.44-2.58-5.74s.84-4.45,2.51-6.17c1.67-1.72,3.46-2.58,5.38-2.58Z"/>
      <path class="st0" d="M1039.79,457.8l-.29,2.01c-5.17,0-7.75,1.39-7.75,4.16,0,.57.14,1.24.43,2.01l15.49,38.15,14.2-38.15c.29-.76.43-1.48.43-2.15,0-1.05-.5-1.91-1.51-2.58-1-.67-1.96-1.05-2.87-1.15-.91-.09-2.18-.19-3.8-.29l.29-2.01c2.49.29,6.07.43,10.76.43,5.07,0,9.13-.14,12.19-.43l-.29,2.01c-3.25,0-5.57.57-6.96,1.72-1.39,1.15-2.7,3.2-3.94,6.17l-18.22,48.2h-7.6l-22.23-50.2c-.96-2.2-2.23-3.68-3.8-4.45-1.58-.76-4.04-1.24-7.39-1.44l.28-2.01c9.56.48,16.07.72,19.51.72,4.97,0,9.32-.24,13.05-.72Z"/>
      <path class="st0" d="M1103.19,483.34v3.16c0,6.89,1.27,13.1,3.8,18.65,2.53,5.55,6.19,8.32,10.97,8.32,5.54,0,9.95-1.62,13.2-4.88,3.25-3.25,5.5-6.65,6.74-10.18l4.02,2.87c-1.44,3.64-4.21,7.15-8.32,10.54-4.11,3.39-9.52,5.09-16.21,5.09-8.13,0-14.89-2.53-20.3-7.6-5.4-5.07-8.1-12.43-8.1-22.09,0-5.64.93-10.59,2.8-14.85,1.87-4.25,4.35-7.5,7.46-9.75,3.11-2.25,6.24-3.9,9.39-4.95,3.16-1.05,6.41-1.58,9.76-1.58,5.16,0,9.97,1.39,14.42,4.16,4.44,2.77,7.34,7.27,8.68,13.48.38,1.91.57,3.82.57,5.74,0,1.05-.05,2.29-.14,3.73l-38.73.14ZM1102.9,446.33l24.24-20.8,4.44,6.89-27.11,16.5-1.58-2.58ZM1103.33,481.18l25.82-.14c.1-1.63.14-3.16.14-4.59,0-2.96-.24-5.36-.72-7.17-.76-3.06-2.32-5.57-4.66-7.53-2.34-1.96-5.23-2.94-8.68-2.94s-6.31,2.01-8.32,6.02c-2.01,4.02-3.21,9.47-3.59,16.35Z"/>
    </g>
    <g>
      <path class="st0" d="M628.55,288.51c0,.1-.03,2.88-.08,8.34-.05,5.47-.1,12.29-.15,20.49-.05,8.2-.07,15.67-.07,22.43,0,13.51.1,23.15.3,28.91.1,2.88,3.87,4.32,11.32,4.32l.15,2.38c-3.18-.1-7.1-.15-11.77-.15-10.73,0-19.87.2-27.42.6v-2.38h.6c7.35,0,11.22-1.14,11.62-3.43.5-2.98.75-30.25.75-81.81,0-1.09-1.79-2.03-5.36-2.83l-5.51-1.04v-2.24c4.67.4,10.68.6,18.03.6s13.61-.2,17.88-.6v2.98c-6.85.5-10.28,1.64-10.28,3.43Z"/>
      <path class="st0" d="M706.93,279.87c5.76,0,11.25.89,16.47,2.68,5.22,1.79,8.62,3.63,10.21,5.51,1.19-.79,2.11-1.64,2.76-2.53.65-.89,1.04-1.69,1.19-2.38.15-.69.37-2.14.67-4.32h4.77l-.45,30.85h-2.98c-1.29-8.05-4.74-14.33-10.36-18.85-5.61-4.52-13.44-6.78-23.47-6.78s-17.09,4.02-22.05,12.07c-4.97,8.05-7.55,18.92-7.75,32.63,0,30.3,10.63,45.45,31.89,45.45,4.87,0,9.14-.67,12.82-2.01,3.67-1.34,6.83-3.35,9.46-6.04,2.63-2.68,4.72-5.36,6.26-8.05,1.54-2.68,3.2-6.06,4.99-10.13l3.43,2.68c-7.75,18.68-20.17,28.06-37.25,28.16-15.1,0-27.42-4.3-36.96-12.89-9.54-8.59-14.31-20.64-14.31-36.14,0-7.45,1.14-14.16,3.43-20.12,2.28-5.96,5.22-10.73,8.79-14.31s7.67-6.61,12.29-9.09c4.62-2.48,9.09-4.17,13.41-5.07,4.32-.89,8.57-1.34,12.74-1.34Z"/>
      <path class="st0" d="M813.78,278.38c3.58,0,7.3.4,11.18,1.19,3.88.8,8.15,2.36,12.82,4.69,4.67,2.34,8.77,5.29,12.29,8.87,3.53,3.58,6.48,8.47,8.87,14.68,2.38,6.21,3.58,13.24,3.58,21.09s-1.52,14.6-4.55,20.86c-3.03,6.26-6.98,11.35-11.85,15.27-4.87,3.93-10.13,6.93-15.79,9.02-5.66,2.09-11.28,3.13-16.84,3.13-15,0-27.82-4.3-38.45-12.89-10.63-8.59-15.94-19.99-15.94-34.2,0-8.15,1.17-15.35,3.5-21.61,2.33-6.26,5.34-11.25,9.02-14.98,3.67-3.73,8.02-6.75,13.04-9.09,5.02-2.33,9.88-3.92,14.6-4.77,4.72-.84,9.56-1.27,14.53-1.27ZM813.78,374.2c9.34,0,16.96-4.25,22.87-12.74,5.91-8.49,8.87-19.35,8.87-32.56,0-15.7-2.88-27.62-8.64-35.76-5.76-8.14-13.86-12.22-24.29-12.22-4.97,0-9.41.7-13.34,2.09-3.93,1.39-7.67,3.73-11.25,7-3.58,3.28-6.33,8.22-8.27,14.83-1.94,6.61-2.91,14.68-2.91,24.22,0,3.58.32,7.23.97,10.95.64,3.73,1.86,7.67,3.65,11.85s4,7.87,6.63,11.1c2.63,3.23,6.18,5.91,10.66,8.05,4.47,2.14,9.49,3.2,15.05,3.2Z"/>
      <path class="st0" d="M906.32,365.25c0,4.47,1.79,6.71,5.36,6.71l19.22.15c3.48,0,6.53-1.94,9.16-5.81,2.63-3.88,4.25-8.39,4.84-13.56h3.28l-2.38,23.1h-68.7v-2.38l3.43-.15c2.38-.2,4.72-.65,7-1.34,2.28-.69,3.48-1.59,3.58-2.68.49-5.36.74-22.5.74-51.41,0-16.39-.1-26.28-.3-29.65-.1-1.29-2.19-2.24-6.26-2.83l-6.26-1.04v-2.68l38.3-.15v2.38c-6.96.4-10.53,1.84-10.73,4.32-.3,23.74-.45,38.05-.45,42.92,0,2.48.02,7.25.08,14.31.05,7.06.08,13.66.08,19.82Z"/>
      <path class="st0" d="M1021.21,334.26h-29.95l-14.16,33.23c-.3.5-.45.99-.45,1.49,0,1.39,1.09,2.51,3.28,3.35,2.18.85,4.37,1.27,6.56,1.27l.15,2.38-29.36.15v-2.98h.3c1.89,0,3.92-.42,6.11-1.27,2.18-.84,3.92-2.01,5.22-3.5,1.69-1.99,8.69-17.04,21.01-45.15l18.48-42.02h4.92l32.63,77.34c2.78,6.66,5.81,10.78,9.09,12.37.89.4,1.84.67,2.83.82.99.15,1.94.22,2.83.22s1.54.05,1.94.15l-.3,3.72c-6.66-.3-14.16-.45-22.5-.45-7.55,0-13.66.15-18.33.45l.15-2.83c0,.1.89.15,2.68.15,3.58,0,6.06-.84,7.45-2.53.69-.79,1.04-1.89,1.04-3.28,0-1.29-.3-2.73-.9-4.32l-.75-2.24-9.98-26.53ZM993.04,330.68h26.97l-13.26-32.19-13.71,32.19Z"/>
      <path class="st0" d="M1107.34,278.08c7.65,0,14.16,2.83,19.52,8.49,2.48-.3,4.47-2.38,5.96-6.26h2.09l-.45,28.91h-2.83c-.3-3.48-.7-6.78-1.19-9.91-.5-3.13-1.59-5.84-3.28-8.12-4.67-6.85-11.38-10.28-20.12-10.28-4.67,0-8.64,1.81-11.92,5.44-3.28,3.63-4.92,7.38-4.92,11.25,0,4.17,1.99,8.1,5.96,11.77,3.97,3.68,9.24,6.71,15.79,9.09,9.04,3.38,16.32,7.7,21.83,12.96,5.51,5.27,8.27,11.18,8.27,17.73,0,8.45-2.78,15.3-8.35,20.56-5.57,5.27-14.8,7.9-27.72,7.9-2.78,0-5.47-.3-8.05-.89-2.58-.6-4.69-1.34-6.33-2.24-1.64-.89-3.23-1.81-4.77-2.76-1.54-.94-2.66-1.71-3.35-2.31-1.99.89-3.83,2.93-5.51,6.11h-3.13l.3-27.12h2.98c1.69,8.15,4.59,14.45,8.72,18.93,4.12,4.47,10.31,6.71,18.55,6.71,13.91,0,20.86-6.71,20.86-20.12,0-8.74-7.35-15.7-22.05-20.86-7.95-2.78-14.21-6.73-18.78-11.85-4.57-5.12-6.85-10.55-6.85-16.32-.1-17.88,9.49-26.82,28.76-26.82Z"/>
      <path class="st0" d="M577.09,374.82h-5.29l-28.88-39.47c-19.15-26.31-29.29-40.02-30.39-41.13-.1,8.57-.15,15.58-.15,21.02,0,6.86.13,13.41.38,19.66.25,6.25.38,14.01.38,23.29v6.05c0,4.13,1.76,6.2,5.29,6.2,5.75,0,8.67.1,8.77.3v2.72c-4.94-.3-10.54-.45-16.79-.45-6.96,0-12.85.2-17.69.61v-2.42h.91c8.26,0,12.65-1.16,13.16-3.48.5-30.04.76-47.63.76-52.77,0-7.76-.1-16.73-.3-26.92-.2-1.11-2.57-2.62-7.11-4.54l-6.8-2.72v-2.72l27.97.15c5.95,8.27,15.73,21.27,29.34,39.01l26.45,32.35"/>
      <path class="st0" d="M576.87,278.04c2.62,0,5.01.83,7.18,2.49,2.17,1.66,3.25,4.16,3.25,7.49,0,3.63-.98,6.28-2.95,7.94-1.97,1.66-4.46,2.5-7.48,2.5-2.52,0-4.82-1.06-6.88-3.18-2.07-2.12-3.1-4.54-3.1-7.26,0-3.12,1.06-5.57,3.18-7.33,2.12-1.76,4.38-2.65,6.8-2.65Z"/>
    </g>
  </g>
</svg>