<?xml version="1.0" encoding="UTF-8"?>
<svg id="Calque_1" xmlns="http://www.w3.org/2000/svg" version="1.1" viewBox="0 0 1190.55 841.89">
  <!-- Generator: Adobe Illustrator 29.6.1, SVG Export Plug-In . SVG Version: 2.1.1 Build 9)  -->
  <defs>
    <style>
      .st0 {
        fill: #fff;
      }

      .st1 {
        fill: none;
        stroke: #fff;
        stroke-miterlimit: 10;
        stroke-width: 10.43px;
      }
    </style>
  </defs>
  <g>
    <path class="st0" d="M322.82,665.28c5.47,0,10.69.85,15.64,2.55,4.96,1.7,8.19,3.45,9.7,5.24,1.13-.75,2-1.56,2.62-2.41.61-.85.99-1.6,1.13-2.27.14-.66.35-2.03.64-4.1h4.53l-.42,29.3h-2.83c-1.23-7.64-4.51-13.61-9.84-17.91-5.33-4.29-12.76-6.44-22.29-6.44s-16.23,3.82-20.95,11.47c-4.72,7.64-7.17,17.98-7.36,31,0,28.78,10.1,43.17,30.29,43.17,4.62,0,8.68-.64,12.17-1.91,3.49-1.27,6.49-3.19,8.99-5.73,2.5-2.55,4.48-5.1,5.95-7.64,1.46-2.55,3.04-5.76,4.74-9.63l3.26,2.55c-7.36,17.74-19.16,26.66-35.39,26.75-14.35,0-26.04-4.08-35.1-12.24-9.06-8.16-13.59-19.6-13.59-34.33,0-7.08,1.08-13.45,3.26-19.11,2.17-5.66,4.96-10.19,8.35-13.59s7.29-6.27,11.68-8.64c4.39-2.36,8.63-3.96,12.74-4.81,4.1-.85,8.14-1.27,12.1-1.27Z"/>
    <path class="st0" d="M374.06,666.13h.14c7.64,0,14.48-1.04,20.52-3.11l-.28,49.54c1.42-2.36,2.52-4.01,3.33-4.96.8-.94,2-2.29,3.61-4.03,1.6-1.74,3.42-3.02,5.45-3.82,2.03-.8,4.36-1.2,7.01-1.2,3.4,0,6.42.8,9.06,2.41,2.64,1.61,4.62,3.59,5.95,5.95,1.32,2.36,2.29,4.65,2.9,6.86.61,2.22.92,4.13.92,5.73v31.28c0,.85.66,1.51,1.98,1.98,1.32.47,2.38.73,3.18.78.8.05,2.29.12,4.46.21v2.26c-3.96-.38-9.06-.57-15.29-.57s-11.56.19-15.15.57v-2.26c.57-.09,1.25-.14,2.05-.14s1.63-.05,2.48-.14c.85-.09,1.63-.26,2.34-.49.71-.24,1.27-.52,1.7-.85.42-.33.64-.73.64-1.2v-33.83c0-8.68-3.21-13.07-9.62-13.16-3.87,0-6.91.92-9.13,2.76-2.22,1.84-4.84,4.98-7.86,9.41v34.68c0,.94.59,1.65,1.77,2.12,1.18.47,2.5.71,3.96.71s2.81.05,4.03.14v2.26c-4.25-.38-9.48-.57-15.71-.57s-10.76.19-14.44.57v-2.26c1.7,0,3.63-.28,5.8-.85,2.17-.57,3.26-1.27,3.26-2.12,0-3.49.07-10.8.21-21.94.14-11.13.21-19.91.21-26.33,0-13.49-.14-23.87-.42-31.14-.66-.66-1.46-1.18-2.41-1.56-.95-.38-1.77-.61-2.48-.71-.71-.09-2.1-.28-4.18-.57v-2.41Z"/>
    <path class="st0" d="M466.35,725.3v3.11c0,6.79,1.25,12.93,3.75,18.4,2.5,5.47,6.11,8.21,10.83,8.21,5.47,0,9.81-1.6,13.02-4.81s5.42-6.56,6.65-10.05l3.96,2.83c-1.42,3.59-4.15,7.06-8.21,10.4-4.06,3.35-9.39,5.03-16,5.03-8.02,0-14.7-2.5-20.03-7.5-5.33-5-8-12.27-8-21.8,0-5.57.92-10.45,2.76-14.65,1.84-4.2,4.29-7.41,7.36-9.62,3.07-2.22,6.16-3.84,9.27-4.88,3.11-1.04,6.32-1.56,9.63-1.56,5.1,0,9.84,1.37,14.23,4.11,4.39,2.74,7.24,7.17,8.56,13.31.38,1.89.57,3.77.57,5.66,0,1.04-.05,2.26-.14,3.68l-38.22.14ZM466.49,723.18l25.48-.14c.09-1.6.14-3.11.14-4.53,0-2.92-.24-5.28-.71-7.08-.76-3.02-2.29-5.5-4.6-7.43-2.31-1.93-5.17-2.9-8.56-2.9s-6.23,1.98-8.21,5.95c-1.98,3.96-3.16,9.34-3.54,16.14Z"/>
    <path class="st0" d="M555.95,756.02c-5.57-.38-11.89-.57-18.97-.57s-12.93.19-17.55.57v-2.55c8.02,0,12.08-1.23,12.17-3.68l.57-47.28h-11.89v-3.11h11.89v-3.11c0-23.5,8.21-35.25,24.63-35.25,4.34,0,8.78,1.13,13.3,3.4,4.53,2.26,6.79,5.24,6.79,8.92,0,2.46-.66,4.7-1.98,6.72-1.32,2.03-3.35,3.04-6.09,3.04-1.89,0-3.45-.73-4.67-2.19-1.23-1.46-1.84-2.99-1.84-4.6,0-1.23.42-2.41,1.27-3.54.85-1.13,1.74-1.89,2.69-2.26l1.27-.71c-.1-2.36-1.27-4.03-3.54-5.03-2.26-.99-4.81-1.49-7.64-1.49-4.15,0-7.31,1.61-9.48,4.81-2.26,3.49-3.35,9.44-3.26,17.84,0,3.96.05,6.84.14,8.63.09,1.79.14,3.4.14,4.81h13.45v3.11h-13.45l.85,47.28c.09,1.23.85,2.17,2.26,2.83,1.42.66,2.97.99,4.67.99.94,0,2.36-.05,4.25-.14v2.55Z"/>
    <path class="st0" d="M668.34,692.74c0,7.08-2.69,12.69-8.07,16.85-5.38,4.15-12.74,6.23-22.08,6.23-3.31,0-5.9-.24-7.79-.71l-2.83-.85-.14,35.1c0,1.7.99,2.97,2.97,3.82,1.98.85,4.39,1.27,7.22,1.27.75,0,1.56-.05,2.41-.14v2.12c0-.19-12.93-.28-38.79-.28v-2.26h.71c7.08,0,10.71-1.08,10.9-3.26.28-2.83.43-15.17.43-37.02s-.14-35.32-.43-40.41c-.1-1.23-1.7-2.12-4.81-2.69l-4.81-.99v-2.55c5.57,0,12.74.05,21.51.14,8.78.1,14.34.14,16.71.14,6.42,0,12.5,2.31,18.26,6.94,5.75,4.63,8.63,10.81,8.63,18.54ZM654.05,692.74c0-2.92-.12-5.4-.35-7.43-.24-2.03-.76-4.13-1.56-6.3-.8-2.17-2.13-3.94-3.97-5.31-1.84-1.37-4.18-2.29-7.01-2.76-1.61-.28-3.59-.42-5.95-.42-.85,0-2.13.02-3.82.07-1.7.05-2.97.07-3.82.07v41.47c0,.47,3.16.71,9.48.71,5.47,0,9.65-2.01,12.53-6.02,2.88-4.01,4.36-8.71,4.46-14.08Z"/>
    <path class="st0" d="M720.29,697.13c3.58,0,6.34,1.06,8.28,3.18,1.93,2.12,2.9,5.17,2.9,9.13,0,2.36-.8,4.53-2.41,6.51-1.6,1.98-3.45,2.97-5.52,2.97-1.51,0-3.07-.66-4.67-1.98-1.61-1.32-2.46-2.88-2.55-4.67,0-2.08,1.37-4.06,4.11-5.95-.28-.85-.78-1.7-1.49-2.55-.71-.85-1.82-1.27-3.33-1.27-2.64,0-5.17,1.44-7.57,4.32-2.41,2.88-4.13,5.73-5.17,8.56l-1.56,4.39.28,30.29c.09,1.89,3.35,3.11,9.77,3.68v2.26c-3.97-.28-9.11-.42-15.43-.42-5.95,0-10.85.14-14.72.42v-2.26c1.42-.09,3.28-.57,5.59-1.42,2.31-.85,3.47-1.6,3.47-2.26v-46.85c-1.23-.75-4.25-1.23-9.06-1.42l-.28-2.26c5.38,0,11.79-.94,19.25-2.83l1.56,16.99c1.51-4.06,3.82-7.83,6.94-11.32,3.11-3.49,6.98-5.24,11.61-5.24Z"/>
    <path class="st0" d="M764.03,696.28c-.19,16.33-.28,34.49-.28,54.5.38,1.89,3.68,2.88,9.91,2.97v2.26c-3.87-.28-9.01-.42-15.43-.42s-11.04.14-14.72.42v-2.26c5.66-.19,8.63-1.18,8.92-2.97v-47.56c-2.93-.94-5.9-1.42-8.92-1.42v-2.26c8.49-.47,15.33-1.56,20.52-3.26ZM757.52,665.28c2.17,0,4.15.78,5.95,2.34,1.79,1.56,2.69,3.37,2.69,5.45,0,2.55-.83,4.65-2.48,6.3-1.65,1.65-3.7,2.48-6.16,2.48-1.79,0-3.54-.75-5.24-2.26-1.7-1.51-2.55-3.4-2.55-5.66s.82-4.39,2.48-6.09c1.65-1.7,3.42-2.55,5.31-2.55Z"/>
    <path class="st0" d="M814.57,700.11l-.28,1.98c-5.1,0-7.64,1.37-7.64,4.11,0,.57.14,1.23.42,1.98l15.29,37.65,14.01-37.65c.28-.75.42-1.46.42-2.12,0-1.04-.49-1.89-1.49-2.55-.99-.66-1.93-1.04-2.83-1.13-.9-.09-2.15-.19-3.75-.28l.28-1.98c2.45.28,5.99.42,10.62.42,5,0,9.01-.14,12.03-.42l-.28,1.98c-3.21,0-5.5.57-6.86,1.7-1.37,1.13-2.67,3.16-3.89,6.09l-17.98,47.56h-7.5l-21.94-49.54c-.95-2.17-2.2-3.63-3.75-4.39-1.56-.75-3.99-1.23-7.29-1.42l.28-1.98c9.44.47,15.86.71,19.25.71,4.91,0,9.2-.24,12.88-.71Z"/>
    <path class="st0" d="M877.13,725.3v3.11c0,6.79,1.25,12.93,3.75,18.4,2.5,5.47,6.11,8.21,10.83,8.21,5.47,0,9.82-1.6,13.02-4.81,3.21-3.21,5.43-6.56,6.65-10.05l3.97,2.83c-1.42,3.59-4.15,7.06-8.21,10.4-4.06,3.35-9.39,5.03-16,5.03-8.02,0-14.7-2.5-20.03-7.5-5.33-5-8-12.27-8-21.8,0-5.57.92-10.45,2.76-14.65,1.84-4.2,4.29-7.41,7.36-9.62,3.07-2.22,6.16-3.84,9.27-4.88,3.12-1.04,6.32-1.56,9.63-1.56,5.1,0,9.84,1.37,14.23,4.11,4.39,2.74,7.24,7.17,8.56,13.31.38,1.89.57,3.77.57,5.66,0,1.04-.05,2.26-.14,3.68l-38.22.14ZM876.85,688.78l23.92-20.53,4.39,6.79-26.75,16.28-1.56-2.55ZM877.27,723.18l25.48-.14c.1-1.6.14-3.11.14-4.53,0-2.92-.24-5.28-.71-7.08-.75-3.02-2.29-5.5-4.6-7.43-2.31-1.93-5.17-2.9-8.56-2.9s-6.23,1.98-8.21,5.95c-1.98,3.96-3.16,9.34-3.54,16.14Z"/>
  </g>
  <g>
    <path class="st0" d="M408.74,533.04c0,.1-.03,2.84-.07,8.23-.05,5.39-.1,12.13-.15,20.22-.05,8.09-.07,15.47-.07,22.13,0,13.33.1,22.84.29,28.53.1,2.84,3.82,4.26,11.18,4.26l.15,2.35c-3.14-.1-7.01-.15-11.62-.15-10.59,0-19.61.2-27.06.59v-2.35h.59c7.25,0,11.08-1.13,11.47-3.38.49-2.94.74-29.85.74-80.73,0-1.08-1.76-2.01-5.29-2.79l-5.44-1.03v-2.21c4.61.39,10.54.59,17.79.59s13.43-.2,17.65-.59v2.94c-6.76.49-10.15,1.62-10.15,3.38Z"/>
    <path class="st0" d="M486.09,524.51c5.68,0,11.1.88,16.25,2.65,5.15,1.76,8.5,3.58,10.07,5.44,1.18-.78,2.08-1.62,2.72-2.5.64-.88,1.03-1.67,1.18-2.35.15-.68.37-2.11.66-4.26h4.71l-.44,30.44h-2.94c-1.28-7.94-4.68-14.14-10.22-18.6-5.54-4.46-13.26-6.69-23.16-6.69s-16.86,3.97-21.76,11.91c-4.9,7.94-7.45,18.68-7.65,32.2,0,29.9,10.49,44.85,31.47,44.85,4.8,0,9.02-.66,12.65-1.99,3.63-1.32,6.74-3.31,9.34-5.96,2.6-2.65,4.66-5.29,6.18-7.94,1.52-2.65,3.16-5.98,4.93-10l3.38,2.65c-7.65,18.43-19.9,27.7-36.76,27.79-14.9,0-27.06-4.24-36.47-12.72-9.41-8.48-14.12-20.37-14.12-35.66,0-7.35,1.13-13.97,3.38-19.85,2.25-5.88,5.15-10.59,8.68-14.12,3.53-3.53,7.57-6.52,12.13-8.97,4.56-2.45,8.97-4.12,13.23-5,4.26-.88,8.45-1.32,12.57-1.32Z"/>
    <path class="st0" d="M591.53,523.04c3.53,0,7.2.39,11.03,1.18,3.82.79,8.04,2.33,12.65,4.63,4.61,2.31,8.65,5.22,12.13,8.75,3.48,3.53,6.4,8.36,8.75,14.48,2.35,6.13,3.53,13.07,3.53,20.81s-1.5,14.41-4.49,20.59c-2.99,6.18-6.89,11.2-11.69,15.07-4.81,3.87-10,6.84-15.59,8.9-5.59,2.06-11.13,3.09-16.62,3.09-14.8,0-27.45-4.24-37.94-12.72-10.49-8.48-15.73-19.73-15.73-33.75,0-8.04,1.15-15.15,3.46-21.32,2.3-6.18,5.27-11.1,8.9-14.78,3.63-3.68,7.92-6.67,12.87-8.97,4.95-2.3,9.75-3.87,14.41-4.71,4.66-.83,9.43-1.25,14.34-1.25ZM591.53,617.6c9.21,0,16.74-4.19,22.57-12.57,5.83-8.38,8.75-19.09,8.75-32.13,0-15.49-2.84-27.25-8.53-35.29-5.69-8.04-13.68-12.06-23.97-12.06-4.9,0-9.29.69-13.16,2.06-3.87,1.37-7.57,3.68-11.1,6.91-3.53,3.24-6.25,8.11-8.16,14.63-1.91,6.52-2.87,14.49-2.87,23.9,0,3.53.32,7.13.96,10.81.64,3.68,1.84,7.57,3.6,11.69s3.95,7.77,6.54,10.96c2.6,3.19,6.1,5.83,10.52,7.94,4.41,2.11,9.36,3.16,14.85,3.16Z"/>
    <path class="st0" d="M682.85,608.77c0,4.41,1.76,6.62,5.29,6.62l18.97.15c3.43,0,6.44-1.91,9.04-5.74,2.6-3.82,4.19-8.28,4.78-13.38h3.23l-2.35,22.79h-67.79v-2.35l3.38-.15c2.35-.2,4.66-.64,6.91-1.32,2.25-.68,3.43-1.57,3.53-2.65.49-5.29.73-22.2.73-50.73,0-16.18-.1-25.93-.29-29.26-.1-1.27-2.16-2.21-6.18-2.79l-6.18-1.03v-2.65l37.79-.15v2.35c-6.86.39-10.39,1.81-10.59,4.26-.29,23.43-.44,37.55-.44,42.35,0,2.45.02,7.16.07,14.12.05,6.96.07,13.48.07,19.56Z"/>
    <path class="st0" d="M796.23,578.19h-29.56l-13.97,32.79c-.29.49-.44.98-.44,1.47,0,1.37,1.08,2.48,3.23,3.31,2.16.83,4.31,1.25,6.47,1.25l.15,2.35-28.97.15v-2.94h.29c1.86,0,3.87-.42,6.03-1.25,2.15-.83,3.87-1.99,5.15-3.46,1.67-1.96,8.58-16.81,20.73-44.56l18.24-41.47h4.85l32.2,76.32c2.75,6.57,5.74,10.64,8.97,12.21.88.39,1.81.66,2.79.81.98.15,1.91.22,2.79.22s1.52.05,1.91.15l-.29,3.68c-6.57-.29-13.97-.44-22.2-.44-7.45,0-13.48.15-18.09.44l.15-2.79c0,.1.88.15,2.65.15,3.53,0,5.98-.83,7.35-2.5.68-.78,1.03-1.86,1.03-3.23,0-1.27-.29-2.7-.88-4.26l-.74-2.21-9.85-26.18ZM768.43,574.66h26.62l-13.09-31.76-13.53,31.76Z"/>
    <path class="st0" d="M881.22,522.75c7.55,0,13.97,2.79,19.26,8.38,2.45-.29,4.41-2.35,5.88-6.18h2.06l-.44,28.53h-2.79c-.29-3.43-.69-6.69-1.18-9.78-.49-3.09-1.57-5.76-3.24-8.01-4.61-6.76-11.23-10.15-19.85-10.15-4.61,0-8.53,1.79-11.76,5.37-3.23,3.58-4.85,7.28-4.85,11.1,0,4.12,1.96,7.99,5.88,11.62,3.92,3.63,9.12,6.62,15.59,8.97,8.92,3.33,16.1,7.6,21.54,12.79,5.44,5.2,8.16,11.03,8.16,17.5,0,8.33-2.75,15.1-8.24,20.29-5.49,5.2-14.61,7.79-27.35,7.79-2.75,0-5.39-.29-7.94-.88-2.55-.59-4.63-1.32-6.25-2.21-1.62-.88-3.19-1.79-4.71-2.72-1.52-.93-2.62-1.69-3.31-2.28-1.96.88-3.78,2.89-5.44,6.03h-3.09l.29-26.76h2.94c1.67,8.04,4.53,14.26,8.6,18.68,4.07,4.41,10.17,6.62,18.31,6.62,13.72,0,20.59-6.62,20.59-19.85,0-8.63-7.26-15.49-21.76-20.59-7.85-2.74-14.02-6.64-18.53-11.69-4.51-5.05-6.76-10.42-6.76-16.1-.1-17.65,9.36-26.47,28.38-26.47Z"/>
    <path class="st0" d="M357.96,618.21h-5.22l-28.5-38.95c-18.9-25.97-28.9-39.49-29.99-40.59-.1,8.46-.15,15.37-.15,20.74,0,6.77.12,13.23.37,19.4.25,6.17.37,13.83.37,22.98v5.97c0,4.08,1.74,6.12,5.22,6.12,5.67,0,8.55.1,8.66.3v2.69c-4.88-.3-10.4-.45-16.56-.45-6.86,0-12.68.2-17.46.6v-2.39h.9c8.16,0,12.48-1.14,12.98-3.43.5-29.65.75-47.01.75-52.08,0-7.66-.1-16.51-.3-26.56-.2-1.09-2.54-2.59-7.01-4.48l-6.72-2.69v-2.69l27.61.15c5.87,8.16,15.52,20.99,28.95,38.5l26.1,31.92"/>
    <path class="st0" d="M357.74,522.7c2.59,0,4.95.82,7.09,2.46,2.14,1.64,3.21,4.1,3.21,7.39,0,3.58-.97,6.19-2.91,7.83-1.94,1.64-4.4,2.46-7.39,2.46-2.49,0-4.75-1.04-6.79-3.13-2.04-2.09-3.06-4.48-3.06-7.16,0-3.08,1.04-5.5,3.13-7.24,2.09-1.74,4.33-2.61,6.72-2.61Z"/>
  </g>
  <g>
    <g>
      <path class="st1" d="M877.5,390.9c0-156.07-126.29-282.36-282.36-282.36-156.07,0-282.36,126.29-282.36,282.36"/>
      <circle class="st1" cx="590.24" cy="80.18" r="27.45"/>
      <rect class="st1" x="280.17" y="391.9" width="629.84" height="26.53"/>
    </g>
    <g>
      <path class="st0" d="M678.71,369.5h-11.93l-65.13-89c-43.19-59.33-66.04-90.25-68.54-92.75-.23,19.32-.34,35.12-.34,47.4,0,15.46.28,30.24.85,44.33.56,14.1.85,31.6.85,52.51v13.64c0,9.32,3.97,13.98,11.93,13.98,12.96,0,19.55.23,19.78.68v6.14c-11.14-.68-23.76-1.02-37.85-1.02-15.69,0-28.98.45-39.9,1.36v-5.46h2.05c18.64,0,28.53-2.61,29.67-7.84,1.13-67.74,1.7-107.41,1.7-119.01,0-17.5-.23-37.73-.68-60.7-.46-2.5-5.8-5.91-16.03-10.23l-15.34-6.14v-6.14l63.08.34c13.41,18.64,35.46,47.97,66.15,87.97l59.65,72.95"/>
      <path class="st0" d="M678.2,151.26c5.91,0,11.3,1.87,16.2,5.63,4.89,3.75,7.33,9.38,7.33,16.88,0,8.18-2.22,14.15-6.65,17.9-4.43,3.75-10.06,5.63-16.88,5.63-5.69,0-10.86-2.39-15.52-7.16-4.66-4.77-6.99-10.23-6.99-16.37,0-7.04,2.39-12.56,7.16-16.54,4.77-3.98,9.89-5.97,15.34-5.97Z"/>
    </g>
    <g>
      <path class="st1" d="M488.2,453.49h217.81v8.91c0,6.22-5.05,11.27-11.27,11.27h-195.27c-6.22,0-11.27-5.05-11.27-11.27v-8.91h0Z"/>
      <polygon class="st1" points="907.43 418.43 282.74 418.43 282.74 436.96 488.2 453.49 706.01 453.49 907.43 436.96 907.43 418.43"/>
    </g>
  </g>
</svg>